<svg xmlns="http://www.w3.org/2000/svg" width="101.693" height="13.677"><defs><linearGradient id="a" x2="1" gradientUnits="objectBoundingBox"><stop offset="0" stop-color="#3cffad"/><stop offset="1" stop-color="#0089de"/></linearGradient></defs><path d="M16.292-32.118l-2.781-4.25a4.315 4.315 0 002.55-4.175c0-2.966-2.072-4.8-5.384-4.8H5.312v13.224h2.869V-35.8h2.639l2.391 3.684zm-3.135-8.425c0 1.436-.886 2.3-2.639 2.3H8.181v-4.609h2.338c1.753.004 2.639.852 2.639 2.309zm9.865-5.025c-3.4 0-5.685 2.191-5.685 6.215v7.235h2.834v-3.174h5.667v3.174h2.869v-7.235c0-4.024-2.284-6.215-5.685-6.215zm-2.851 7.821v-1.889c0-2.248 1.116-3.325 2.834-3.325 1.7 0 2.834 1.077 2.834 3.325v1.889zm15.851-7.594h-5.366v13.224h2.869v-3.646h2.5c3.312 0 5.384-1.832 5.384-4.779-.003-2.967-2.075-4.799-5.387-4.799zm-.159 7.084h-2.338v-4.591h2.338c1.753 0 2.639.85 2.639 2.3-.002 1.441-.886 2.291-2.64 2.291zm12.875 6.366a6.615 6.615 0 006.783-6.839 6.615 6.615 0 00-6.783-6.839 6.616 6.616 0 00-6.783 6.839 6.616 6.616 0 006.783 6.839zm0-2.607a3.918 3.918 0 01-3.879-4.232 3.918 3.918 0 013.879-4.232 3.918 3.918 0 013.879 4.232 3.918 3.918 0 01-3.879 4.23zm19.039 2.38L65-36.368a4.315 4.315 0 002.55-4.175c0-2.966-2.072-4.8-5.384-4.8H56.8v13.224h2.869V-35.8H62.3l2.4 3.682zm-3.135-8.425c0 1.436-.886 2.3-2.639 2.3h-2.338v-4.609H62c1.756.004 2.642.852 2.642 2.309zm9.865-5.025c-3.4 0-5.685 2.191-5.685 6.215v7.235h2.834v-3.174h5.667v3.174h2.869v-7.235c0-4.024-2.285-6.215-5.685-6.215zm-2.851 7.821v-1.889c0-2.248 1.116-3.325 2.834-3.325 1.7 0 2.834 1.077 2.834 3.325v1.889zm15.851-7.594H82.14v13.224h2.869v-3.646h2.5c3.312 0 5.384-1.832 5.384-4.779-.003-2.967-2.075-4.799-5.387-4.799zm-.159 7.084h-2.339v-4.591h2.338c1.753 0 2.639.85 2.639 2.3 0 1.441-.886 2.291-2.639 2.291zm12.875 6.366a6.615 6.615 0 006.783-6.839 6.615 6.615 0 00-6.783-6.839 6.616 6.616 0 00-6.783 6.839 6.616 6.616 0 006.782 6.839zm0-2.607a3.918 3.918 0 01-3.879-4.232 3.918 3.918 0 013.879-4.232 3.918 3.918 0 013.879 4.232 3.918 3.918 0 01-3.88 4.23z" transform="translate(-5.312 45.568)" fill="url(#a)"/></svg>