<svg width="20" height="20" viewBox="0 0 20 20" fill="none" xmlns="http://www.w3.org/2000/svg">
<path d="M3.75 15.5C3.5375 15.5 3.35937 15.4285 3.21562 15.2856C3.07187 15.1427 3 14.9656 3 14.7544C3 14.5431 3.07187 14.3646 3.21562 14.2188C3.35937 14.0729 3.5375 14 3.75 14H10.25C10.4625 14 10.6406 14.0715 10.7844 14.2144C10.9281 14.3573 11 14.5344 11 14.7456C11 14.9569 10.9281 15.1354 10.7844 15.2812C10.6406 15.4271 10.4625 15.5 10.25 15.5H3.75ZM3.75 11.75C3.5375 11.75 3.35937 11.6785 3.21562 11.5356C3.07187 11.3927 3 11.2156 3 11.0044C3 10.7931 3.07187 10.6146 3.21562 10.4688C3.35937 10.3229 3.5375 10.25 3.75 10.25H6.25C6.4625 10.25 6.64062 10.3215 6.78437 10.4644C6.92812 10.6073 7 10.7844 7 10.9956C7 11.2069 6.92812 11.3854 6.78437 11.5312C6.64062 11.6771 6.4625 11.75 6.25 11.75H3.75ZM3.75 8C3.5375 8 3.35937 7.92854 3.21562 7.78563C3.07187 7.64271 3 7.46563 3 7.25438C3 7.04313 3.07187 6.86458 3.21562 6.71875C3.35937 6.57292 3.5375 6.5 3.75 6.5H6.25C6.4625 6.5 6.64062 6.57146 6.78437 6.71437C6.92812 6.85729 7 7.03437 7 7.24562C7 7.45687 6.92812 7.63542 6.78437 7.78125C6.64062 7.92708 6.4625 8 6.25 8H3.75ZM12.5 13C11.3933 13 10.45 12.6095 9.67 11.8285C8.89 11.0477 8.5 10.1033 8.5 8.99521C8.5 7.88729 8.89049 6.94444 9.67146 6.16667C10.4523 5.38889 11.3967 5 12.5048 5C13.6127 5 14.5556 5.39 15.3333 6.17C16.1111 6.95 16.5 7.89333 16.5 9C16.5 9.41667 16.441 9.81597 16.3229 10.1979C16.2049 10.5799 16.0347 10.9306 15.8125 11.25L18.4758 13.9133C18.6308 14.0683 18.7083 14.2431 18.7083 14.4375C18.7083 14.6319 18.6319 14.8056 18.4792 14.9583C18.3264 15.1111 18.1493 15.1875 17.9479 15.1875C17.7465 15.1875 17.5683 15.1106 17.4133 14.9567L14.75 12.3125C14.4306 12.5347 14.0799 12.7049 13.6979 12.8229C13.316 12.941 12.9167 13 12.5 13ZM12.5 11.5C13.1944 11.5 13.7847 11.2569 14.2708 10.7708C14.7569 10.2847 15 9.69444 15 9C15 8.30556 14.7569 7.71528 14.2708 7.22917C13.7847 6.74306 13.1944 6.5 12.5 6.5C11.8056 6.5 11.2153 6.74306 10.7292 7.22917C10.2431 7.71528 10 8.30556 10 9C10 9.69444 10.2431 10.2847 10.7292 10.7708C11.2153 11.2569 11.8056 11.5 12.5 11.5Z" fill="white"/>
</svg>
