<svg width="20" height="20" viewBox="0 0 20 20" fill="none" xmlns="http://www.w3.org/2000/svg">
<mask id="mask0_363_3261" style="mask-type:luminance" maskUnits="userSpaceOnUse" x="0" y="0" width="20" height="20">
<path d="M20 0H0V20H20V0Z" fill="white"/>
</mask>
<g mask="url(#mask0_363_3261)">
<path d="M6.21423 14.0852H13.4772C13.5621 14.0878 13.6466 14.073 13.7256 14.0417C13.8045 14.0104 13.8762 13.9632 13.9362 13.9032C13.9963 13.8431 14.0434 13.7714 14.0747 13.6925C14.106 13.6136 14.1208 13.529 14.1182 13.4442C14.1208 13.3593 14.106 13.2748 14.0747 13.1958C14.0434 13.1169 13.9963 13.0452 13.9362 12.9852C13.8762 12.9251 13.8045 12.878 13.7256 12.8467C13.6466 12.8154 13.5621 12.8006 13.4772 12.8032H6.21423C6.12935 12.8006 6.04484 12.8154 5.9659 12.8467C5.88696 12.878 5.81526 12.9251 5.75523 12.9852C5.69517 13.0452 5.64803 13.1169 5.61673 13.1958C5.58543 13.2748 5.57063 13.3593 5.57323 13.4442C5.57063 13.529 5.58543 13.6136 5.61673 13.6925C5.64803 13.7714 5.69517 13.8431 5.75523 13.9032C5.81526 13.9632 5.88696 14.0104 5.9659 14.0417C6.04484 14.073 6.12935 14.0878 6.21423 14.0852ZM9.16223 8.98517L7.79223 7.64017C7.669 7.52799 7.50979 7.46345 7.34323 7.45817C7.25968 7.45421 7.17626 7.46843 7.09874 7.49985C7.02122 7.53127 6.95144 7.57915 6.89423 7.64017C6.83326 7.69793 6.78478 7.76757 6.75175 7.84479C6.71873 7.92201 6.70188 8.00518 6.70223 8.08917C6.70188 8.17315 6.71873 8.25632 6.75175 8.33354C6.78478 8.41076 6.83326 8.4804 6.89423 8.53817L9.17223 10.8382C9.25188 10.9189 9.34689 10.9829 9.45165 11.0263C9.55642 11.0698 9.66881 11.0918 9.78223 11.0912C9.89421 11.0921 10.0052 11.0702 10.1084 11.0267C10.2116 10.9832 10.3048 10.919 10.3822 10.8382L12.7032 8.53817C12.7642 8.4804 12.8127 8.41076 12.8457 8.33354C12.8787 8.25632 12.8956 8.17315 12.8952 8.08917C12.8956 8.00518 12.8787 7.92201 12.8457 7.84479C12.8127 7.76757 12.7642 7.69793 12.7032 7.64017C12.646 7.57915 12.5762 7.53127 12.4987 7.49985C12.4212 7.46843 12.3378 7.45421 12.2542 7.45817C12.0877 7.46345 11.9285 7.52799 11.8052 7.64017L10.4382 8.98617V5.37617C10.4408 5.29129 10.426 5.20677 10.3947 5.12783C10.3634 5.04889 10.3163 4.9772 10.2562 4.91717C10.1962 4.8571 10.1245 4.80997 10.0456 4.77867C9.96662 4.74737 9.88211 4.73256 9.79723 4.73517C9.71235 4.73256 9.62784 4.74737 9.5489 4.77867C9.46996 4.80997 9.39826 4.8571 9.33823 4.91717C9.27817 4.9772 9.23103 5.04889 9.19973 5.12783C9.16843 5.20677 9.15363 5.29129 9.15623 5.37617L9.16223 8.98517ZM9.84723 18.7072C8.66562 18.7143 7.49512 18.4788 6.40823 18.0152C5.35642 17.5682 4.40039 16.9232 3.59223 16.1152C2.78453 15.3075 2.13951 14.3522 1.69223 13.3012C1.22844 12.2147 0.992905 11.0445 1.00023 9.86317C0.991602 8.6743 1.22713 7.49632 1.69223 6.40217C2.13765 5.35161 2.78294 4.3976 3.59223 3.59317C4.4032 2.79032 5.35864 2.14804 6.40823 1.70016C7.49433 1.23202 8.66555 0.993689 9.84823 1.00017C11.0384 0.992792 12.2173 1.23109 13.3112 1.70016C14.3598 2.14532 15.3136 2.78684 16.1212 3.59017C16.9252 4.39696 17.5674 5.35009 18.0132 6.39817C18.4827 7.4923 18.721 8.67161 18.7132 9.86217C18.7197 11.0452 18.4813 12.2167 18.0132 13.3032C17.563 14.3518 16.9187 15.3058 16.1142 16.1152C15.3104 16.9242 14.3571 17.5695 13.3072 18.0152C12.2136 18.4808 11.0359 18.7157 9.84723 18.7072ZM9.84723 17.0152C10.7901 17.0321 11.7265 16.8555 12.5985 16.4964C13.4706 16.1373 14.2597 15.6032 14.9172 14.9272C15.5924 14.2697 16.1257 13.481 16.4842 12.6095C16.8428 11.738 17.0191 10.8024 17.0022 9.86017C17.0195 8.91746 16.8434 7.98122 16.4848 7.10922C16.1262 6.23721 15.5927 5.44796 14.9172 4.79017C14.2585 4.11431 13.4682 3.58062 12.5951 3.22202C11.7221 2.86341 10.7849 2.68751 9.84123 2.70517C8.90037 2.68937 7.96622 2.86619 7.09622 3.22475C6.22621 3.58331 5.43875 4.11603 4.78223 4.79017C4.10484 5.44846 3.56982 6.23882 3.21031 7.1123C2.85081 7.98578 2.67447 8.92377 2.69223 9.86817C2.67642 10.8091 2.85343 11.7432 3.21236 12.6131C3.57128 13.483 4.10453 14.2702 4.77923 14.9262C5.43633 15.602 6.22495 16.1361 7.09642 16.4953C7.96789 16.8546 8.90374 17.0315 9.84623 17.0152H9.84723Z" fill="#16A3F7"/>
</g>
</svg>
