<svg xmlns="http://www.w3.org/2000/svg" width="20" height="19.997" viewBox="0 0 20 19.997"><path d="M16015,7317a10,10,0,1,1,10,10A10,10,0,0,1,16015,7317Zm2,0a8,8,0,1,0,8-8A8.01,8.01,0,0,0,16017,7317Zm7.413,4.765a.846.846,0,1,1,.587.237A.8.8,0,0,1,16024.413,7321.763Zm.137-3.8a.691.691,0,0,1-.226-.515V7312.6a.751.751,0,0,1,1.275-.535.675.675,0,0,1,.226.511v4.85a.741.741,0,0,1-.213.539.7.7,0,0,1-.512.209A.772.772,0,0,1,16024.55,7317.964Z" transform="translate(-16015 -7307.002)" fill="#ff1c51"/></svg>