<svg xmlns="http://www.w3.org/2000/svg" width="16" height="16" viewBox="0 0 16 16"><g transform="translate(-12622.523 -2321)"><path d="M0,0H16V16H0Z" transform="translate(12622.523 2321)" fill="none"/><path d="M115.307-881.931a1.637,1.637,0,0,1-1.2-.5,1.643,1.643,0,0,1-.5-1.2,1.625,1.625,0,0,1,.02-.229,1.449,1.449,0,0,1,.06-.256l-3.78-2.2a1.694,1.694,0,0,1-.544.4,1.517,1.517,0,0,1-.658.152,1.642,1.642,0,0,1-1.208-.5,1.643,1.643,0,0,1-.5-1.2,1.641,1.641,0,0,1,.5-1.2,1.642,1.642,0,0,1,1.208-.5,1.614,1.614,0,0,1,.644.132,1.778,1.778,0,0,1,.557.383l3.78-2.173a1.091,1.091,0,0,1-.06-.232,1.6,1.6,0,0,1-.02-.243,1.636,1.636,0,0,1,.5-1.2,1.64,1.64,0,0,1,1.2-.5,1.639,1.639,0,0,1,1.2.5,1.641,1.641,0,0,1,.5,1.2,1.641,1.641,0,0,1-.5,1.2,1.643,1.643,0,0,1-1.208.5,2.049,2.049,0,0,1-.654-.1,1.167,1.167,0,0,1-.527-.355l-3.788,2.077a1.489,1.489,0,0,1,.051.267,2.43,2.43,0,0,1,.016.249,1.447,1.447,0,0,1-.016.208,1.864,1.864,0,0,1-.051.234l3.788,2.131a1.526,1.526,0,0,1,.509-.328,1.8,1.8,0,0,1,.672-.117,1.642,1.642,0,0,1,1.208.5,1.643,1.643,0,0,1,.5,1.2,1.639,1.639,0,0,1-.5,1.2A1.641,1.641,0,0,1,115.307-881.931Z" transform="translate(12518.519 3216.466)" fill="#949494"/></g></svg>